Coordinates
version=1
nRows=27
nColumns=38
inDegrees=no

Units are S.I. units (second, meters, Newtons, ...)
If the header above contains a line with 'inDegrees', this indicates whether rotational values are in degrees (yes) or radians (no).

endheader
time	pelvis_tilt	pelvis_list	pelvis_rotation	pelvis_tx	pelvis_ty	pelvis_tz	hip_flexion_r	hip_adduction_r	hip_rotation_r	knee_angle_r	ankle_angle_r	subtalar_angle_r	mtp_angle_r	hip_flexion_l	hip_adduction_l	hip_rotation_l	knee_angle_l	ankle_angle_l	subtalar_angle_l	mtp_angle_l	lumbar_extension	lumbar_bending	lumbar_rotation	arm_flex_r	arm_add_r	arm_rot_r	elbow_flex_r	pro_sup_r	wrist_flex_r	wrist_dev_r	arm_flex_l	arm_add_l	arm_rot_l	elbow_flex_l	pro_sup_l	wrist_flex_l	wrist_dev_l
1.75833	0.250625	-0.0441939	-0.0635754	0.47763	0.983011	-0.301194	-0.0738712	0.115216	0.112115	-0.703166	0.422842	-0.031798	-0.00405963	0.308095	-0.0123206	0.0182707	-1.56485	0.145073	-0.0719804	0.00213752	-0.575561	0.0750012	0.132963	-0.0720574	-0.4845	0.0390708	1.82652	1.31245	-0.0266009	-0.00463286	-0.391571	-0.328196	0.0414942	1.98933	1.73496	0.0491703	-0.0193245
1.76667	0.247075	-0.0360889	-0.0608725	0.478107	0.987222	-0.301657	-0.107718	0.100853	0.107912	-0.664614	0.409995	-0.031798	-0.00405963	0.325313	-0.00503192	0.0209205	-1.52763	0.151536	-0.0719804	0.00213752	-0.569831	0.0661801	0.136316	-0.0669994	-0.481473	0.046352	1.84061	1.31532	-0.0266009	-0.00463286	-0.403795	-0.333585	0.0388035	2.0005	1.73382	0.0491703	-0.0193245
1.775	0.243764	-0.027363	-0.0577731	0.478842	0.991743	-0.30213	-0.142424	0.0859218	0.102534	-0.624284	0.391266	-0.031798	-0.00405963	0.338553	0.00167384	0.0206811	-1.48379	0.157223	-0.0719804	0.00213752	-0.563763	0.0567671	0.138518	-0.0637441	-0.47876	0.0543301	1.85491	1.31791	-0.0266009	-0.00463286	-0.415624	-0.339885	0.0365165	2.01176	1.73337	0.0491703	-0.0193245
1.78333	0.240791	-0.0183563	-0.0543138	0.479813	0.996492	-0.302628	-0.177744	0.0709441	0.0961377	-0.582875	0.366222	-0.031798	-0.00405963	0.347715	0.00809397	0.0185673	-1.43372	0.1622	-0.0719804	0.00213752	-0.557587	0.0470998	0.139907	-0.0623113	-0.476506	0.0628572	1.86915	1.32038	-0.0266009	-0.00463286	-0.426681	-0.346861	0.0345446	2.02252	1.73331	0.0491703	-0.0193245
1.79167	0.238237	-0.00941133	-0.0505315	0.480994	1.00138	-0.303169	-0.213387	0.0563716	0.0888629	-0.541124	0.334827	-0.031798	-0.00405963	0.35277	0.0146047	0.015838	-1.37787	0.166568	-0.0719804	0.00213752	-0.551511	0.0375241	0.140831	-0.0627288	-0.474824	0.0717211	1.88315	1.32291	-0.0266009	-0.00463286	-0.436615	-0.354317	0.0328593	2.03236	1.73345	0.0491703	-0.0193245
1.8	0.236142	-0.000867582	-0.0464989	0.482355	1.00633	-0.303769	-0.248959	0.0425793	0.0808525	-0.499855	0.297535	-0.031798	-0.00405963	0.353783	0.0215523	0.0138278	-1.31668	0.170446	-0.0719804	0.00213752	-0.545684	0.0283697	0.141645	-0.0649944	-0.473787	0.0807023	1.89679	1.3257	-0.0266009	-0.00463286	-0.445123	-0.362102	0.0314824	2.04103	1.73371	0.0491703	-0.0193245
1.80833	0.234473	0.00694704	-0.0423375	0.483859	1.01122	-0.304438	-0.283913	0.0298831	0.0722961	-0.460032	0.255295	-0.031798	-0.00405963	0.350944	0.0291425	0.0137593	-1.25069	0.173952	-0.0719804	0.00213752	-0.540162	0.0199397	0.142693	-0.0690491	-0.473428	0.0896171	1.90998	1.32885	-0.0266009	-0.00463286	-0.451981	-0.370104	0.0304576	2.04841	1.7341	0.0491703	-0.0193245
1.81667	0.233115	0.0137223	-0.0382034	0.485468	1.01597	-0.305174	-0.317536	0.0185671	0.0634841	-0.42277	0.209466	-0.031798	-0.00405963	0.344595	0.0373587	0.0165613	-1.18051	0.177192	-0.0719804	0.00213752	-0.534898	0.012508	0.144277	-0.0747644	-0.473736	0.0983395	1.92262	1.33243	-0.0266009	-0.00463286	-0.457057	-0.378239	0.0298131	2.05451	1.73474	0.0491703	-0.0193245
1.825	0.231877	0.0191671	-0.0342533	0.487148	1.02045	-0.30597	-0.348989	0.00890361	0.0548397	-0.389295	0.161675	-0.031798	-0.00405963	0.335226	0.0459326	0.0227199	-1.10694	0.180251	-0.0719804	0.00213752	-0.529751	0.00631539	0.146618	-0.0819458	-0.47466	0.106799	1.93463	1.3364	-0.0266009	-0.00463286	-0.460321	-0.386432	0.0295261	2.05946	1.73567	0.0491703	-0.0193245
1.83333	0.230524	0.0230291	-0.0306109	0.488863	1.02456	-0.306809	-0.377385	0.00116192	0.0469012	-0.360858	0.113639	-0.031798	-0.00405963	0.32346	0.0543653	0.0321891	-1.03094	0.183195	-0.0719804	0.00213752	-0.524511	0.00156895	0.14982	-0.0903444	-0.476117	0.11497	1.9459	1.34071	-0.0266009	-0.00463286	-0.46185	-0.394602	0.0294969	2.06343	1.73691	0.0491703	-0.0193245
1.84167	0.228818	0.0251169	-0.027345	0.49058	1.02821	-0.307665	-0.401888	-0.00440082	0.0402465	-0.338631	0.066999	-0.031798	-0.00405963	0.310005	0.0620001	0.0443818	-0.953679	0.18608	-0.0719804	0.00213752	-0.518954	-0.0015643	0.153858	-0.0996737	-0.478002	0.122856	1.95636	1.34527	-0.0266009	-0.00463286	-0.461811	-0.402653	0.0295413	2.06668	1.73845	0.0491703	-0.0193245
1.85	0.226561	0.0253192	-0.0244628	0.492272	1.0313	-0.308511	-0.421803	-0.00756676	0.0353792	-0.323621	0.0231793	-0.031798	-0.00405963	0.2956	0.0681334	0.0582489	-0.876522	0.188932	-0.0719804	0.00213752	-0.512894	-0.00297346	0.15857	-0.109626	-0.480201	0.130482	1.96593	1.34998	-0.0266009	-0.00463286	-0.460441	-0.410473	0.0294054	2.06946	1.74029	0.0491703	-0.0193245
1.85833	0.223638	0.0236231	-0.0219177	0.49391	1.03376	-0.309318	-0.436633	-0.00820222	0.0326045	-0.316617	-0.0167336	-0.031798	-0.00405963	0.280949	0.0721487	0.0724397	-0.800992	0.191726	-0.0719804	0.00213752	-0.506237	-0.00263096	0.16368	-0.119886	-0.482606	0.13789	1.97455	1.35473	-0.0266009	-0.00463286	-0.458012	-0.41795	0.0287947	2.07203	1.74244	0.0491703	-0.0193245
1.86667	0.220054	0.0201353	-0.0196317	0.495471	1.03556	-0.310061	-0.446118	-0.00631502	0.0319267	-0.31819	-0.0520766	-0.031798	-0.00405963	0.266636	0.0736472	0.0855171	-0.728687	0.194339	-0.0719804	0.00213752	-0.499027	-0.000625014	0.168818	-0.130146	-0.485119	0.145137	1.98223	1.35939	-0.0266009	-0.00463286	-0.454806	-0.424984	0.0274084	2.07462	1.74491	0.0491703	-0.0193245
1.875	0.215954	0.0151135	-0.017528	0.496931	1.03667	-0.31072	-0.450237	-0.00211613	0.0329901	-0.328711	-0.082654	-0.031798	-0.00405963	0.253063	0.0725467	0.0961848	-0.66118	0.196506	-0.0719804	0.00213752	-0.49148	0.00281281	0.173561	-0.140115	-0.487662	0.152289	1.98898	1.36383	-0.0266009	-0.00463286	-0.451084	-0.43151	0.0249692	2.07746	1.74769	0.0491703	-0.0193245
1.88333	0.211617	0.00897321	-0.0155602	0.498266	1.03708	-0.311286	-0.449163	0.00392389	0.0350766	-0.348398	-0.108711	-0.031798	-0.00405963	0.240424	0.0691239	0.10347	-0.599918	0.197799	-0.0719804	0.00213752	-0.483957	0.00728831	0.177474	-0.14954	-0.490169	0.159411	1.99488	1.3679	-0.0266009	-0.00463286	-0.447068	-0.437509	0.0212435	2.08074	1.75064	0.0491703	-0.0193245
1.89167	0.207414	0.00226984	-0.0137314	0.499455	1.03683	-0.311763	-0.443213	0.0110392	0.0371577	-0.377334	-0.130852	-0.031798	-0.00405963	0.228728	0.0639959	0.10683	-0.546148	0.19765	-0.0719804	0.00213752	-0.476919	0.0122451	0.180149	-0.15822	-0.492588	0.166556	2.00004	1.37147	-0.0266009	-0.00463286	-0.44293	-0.44302	0.0160522	2.08464	1.75353	0.0491703	-0.0193245
1.9	0.203745	-0.00434099	-0.0120969	0.500478	1.03594	-0.312166	-0.432788	0.0181747	0.03799	-0.415468	-0.149895	-0.031798	-0.00405963	0.217886	0.0580416	0.10618	-0.500896	0.195449	-0.0719804	0.00213752	-0.470845	0.0170013	0.181236	-0.166018	-0.494869	0.173753	2.00459	1.37447	-0.0266009	-0.00463286	-0.438788	-0.448145	0.00927932	2.08934	1.75602	0.0491703	-0.0193245
1.90833	0.200961	-0.0101604	-0.0107465	0.501314	1.03443	-0.312527	-0.418314	0.0240419	0.0362437	-0.462569	-0.166709	-0.031798	-0.00405963	0.207825	0.0522867	0.10186	-0.465009	0.190726	-0.0719804	0.00213752	-0.466143	0.0208197	0.18046	-0.172868	-0.496965	0.181004	2.00866	1.37691	-0.0266009	-0.00463286	-0.434692	-0.453044	0.000880312	2.09495	1.75768	0.0491703	-0.0193245
1.91667	0.199268	-0.0144789	-0.0097827	0.50193	1.03227	-0.312881	-0.400218	0.0272294	0.0306582	-0.518197	-0.182034	-0.031798	-0.00405963	0.198609	0.0477713	0.0945741	-0.439225	0.183411	-0.0719804	0.00213752	-0.463095	0.0230082	0.177619	-0.17877	-0.498826	0.188286	2.01236	1.37883	-0.0266009	-0.00463286	-0.430627	-0.457921	-0.00910677	2.10156	1.7581	0.0491703	-0.0193245
1.925	0.198737	-0.0167238	-0.00927018	0.502314	1.02947	-0.313269	-0.378889	0.0263234	0.0202269	-0.581668	-0.19633	-0.031798	-0.00405963	0.190518	0.0454578	0.0853049	-0.424216	0.174099	-0.0719804	0.00213752	-0.461803	0.0229621	0.17257	-0.18377	-0.500398	0.195554	2.01574	1.3803	-0.0266009	-0.00463286	-0.426495	-0.46301	-0.020554	2.10915	1.75689	0.0491703	-0.0193245
1.93333	0.199292	-0.0164669	-0.00922078	0.502449	1.026	-0.313727	-0.354677	0.0200872	0.00438335	-0.652056	-0.20969	-0.031798	-0.00405963	0.184032	0.0461283	0.0752179	-0.420557	0.164198	-0.0719804	0.00213752	-0.462209	0.0202426	0.165216	-0.187932	-0.501614	0.202738	2.01875	1.38145	-0.0266009	-0.00463286	-0.422116	-0.468547	-0.0332422	2.11759	1.75386	0.0491703	-0.0193245
1.94167	0.200749	-0.0134543	-0.00958344	0.502312	1.02188	-0.314286	-0.327914	0.0076465	-0.0168281	-0.728219	-0.221821	-0.031798	-0.00405963	0.179717	0.0503123	0.0655236	-0.428583	0.155846	-0.0719804	0.00213752	-0.464161	0.0146133	0.15549	-0.191315	-0.50238	0.209756	2.02121	1.38239	-0.0266009	-0.00463286	-0.417214	-0.474747	-0.0468674	2.12663	1.74904	0.0491703	-0.0193245
1.95	0.202886	-0.00762288	-0.0102436	0.501874	1.01712	-0.314957	-0.298938	-0.0113313	-0.042641	-0.808828	-0.232123	-0.031798	-0.00405963	0.178032	0.0582307	0.0573019	-0.448158	0.151523	-0.0719804	0.00213752	-0.467486	0.00605325	0.143355	-0.193946	-0.502562	0.216506	2.0228	1.38326	-0.0266009	-0.00463286	-0.411424	-0.481784	-0.0610537	2.13587	1.74268	0.0491703	-0.0193245
1.95833	0.20552	0.000894988	-0.0110304	0.501111	1.01184	-0.315731	-0.268128	-0.0364904	-0.0715589	-0.8924	-0.239849	-0.031798	-0.00405963	0.179102	0.0697591	0.0513281	-0.478421	0.153436	-0.0719804	0.00213752	-0.472068	-0.00524116	0.128806	-0.195825	-0.501967	0.222868	2.02302	1.38415	-0.0266009	-0.00463286	-0.404298	-0.489771	-0.0753665	2.14473	1.73522	0.0491703	-0.0193245
1.96667	0.208576	0.0117736	-0.0117257	0.500012	1.00626	-0.316572	-0.235935	-0.0667137	-0.101484	-0.977317	-0.244292	-0.031798	-0.00405963	0.182541	0.0844193	0.0479638	-0.517608	0.162892	-0.0719804	0.00213752	-0.477887	-0.0188625	0.111888	-0.196939	-0.500335	0.228705	2.02123	1.38517	-0.0266009	-0.00463286	-0.395333	-0.498748	-0.0893241	2.15251	1.7272	0.0491703	-0.0193245
1.975	0.212112	0.0244946	-0.0120783	0.498596	1.00062	-0.317423	-0.202875	-0.100168	-0.129984	-1.06185	-0.244971	-0.031798	-0.00405963	0.187393	0.101418	0.0471618	-0.563065	0.179912	-0.0719804	0.00213752	-0.485011	-0.0342153	0.0927216	-0.197298	-0.497352	0.233853	2.01671	1.38635	-0.0266009	-0.00463286	-0.384005	-0.508666	-0.102408	2.15843	1.71915	0.0491703	-0.0193245
